<?xml version="1.0" standalone="no"?>
<!DOCTYPE svg PUBLIC "-//W3C//DTD SVG 20010904//EN"
 "http://www.w3.org/TR/2001/REC-SVG-20010904/DTD/svg10.dtd">
<svg version="1.0" xmlns="http://www.w3.org/2000/svg"
 width="900.000000pt" height="600.000000pt" viewBox="0 0 900.000000 600.000000"
 preserveAspectRatio="xMidYMid meet">

<g transform="translate(0.000000,600.000000) scale(0.100000,-0.100000)"
fill="#000000" stroke="none">
<path d="M0 2066 l0 -747 205 -100 c276 -134 451 -207 624 -263 226 -73 356
-97 562 -103 206 -7 291 1 699 62 162 24 356 49 430 56 161 14 525 7 745 -16
83 -8 229 -22 325 -32 254 -25 792 -25 945 0 383 63 588 148 1081 444 389 234
518 301 699 368 16 6 9 12 -40 33 -33 14 -166 79 -296 143 -556 276 -738 335
-1034 333 -191 -1 -334 -27 -540 -98 -206 -70 -317 -121 -870 -400 -520 -263
-682 -335 -896 -399 -298 -91 -612 -103 -881 -36 -462 116 -889 462 -1563
1271 -98 117 -182 217 -187 223 -4 5 -8 -327 -8 -739z"/>
<path d="M8810 2169 c-527 -317 -828 -457 -1173 -543 l-127 -32 119 -53 c206
-91 883 -441 1101 -569 l35 -20 118 84 117 85 0 580 c0 318 -1 579 -2 579 -2
0 -86 -50 -188 -111z"/>
</g>
</svg>
