<svg id="visual" viewBox="0 0 900 600" width="900" height="600" xmlns="http://www.w3.org/2000/svg" xmlns:xlink="http://www.w3.org/1999/xlink" version="1.1"><rect x="0" y="0" width="900" height="600" fill="#c1c2b1"></rect><path d="M0 318L21.5 343.7C43 369.3 86 420.7 128.8 447.8C171.7 475 214.3 478 257.2 466.7C300 455.3 343 429.7 385.8 408.2C428.7 386.7 471.3 369.3 514.2 375.8C557 382.3 600 412.7 642.8 428.8C685.7 445 728.3 447 771.2 435C814 423 857 397 878.5 384L900 371L900 601L878.5 601C857 601 814 601 771.2 601C728.3 601 685.7 601 642.8 601C600 601 557 601 514.2 601C471.3 601 428.7 601 385.8 601C343 601 300 601 257.2 601C214.3 601 171.7 601 128.8 601C86 601 43 601 21.5 601L0 601Z" fill="#ae2727"></path><path d="M0 468L21.5 478.7C43 489.3 86 510.7 128.8 514.7C171.7 518.7 214.3 505.3 257.2 502.5C300 499.7 343 507.3 385.8 509.8C428.7 512.3 471.3 509.7 514.2 490C557 470.3 600 433.7 642.8 423.5C685.7 413.3 728.3 429.7 771.2 449.8C814 470 857 494 878.5 506L900 518L900 601L878.5 601C857 601 814 601 771.2 601C728.3 601 685.7 601 642.8 601C600 601 557 601 514.2 601C471.3 601 428.7 601 385.8 601C343 601 300 601 257.2 601C214.3 601 171.7 601 128.8 601C86 601 43 601 21.5 601L0 601Z" fill="#bca22b"></path></svg>